<?xml version="1.0" standalone="no"?>
<!DOCTYPE svg PUBLIC "-//W3C//DTD SVG 20010904//EN"
 "http://www.w3.org/TR/2001/REC-SVG-20010904/DTD/svg10.dtd">
<svg version="1.0" xmlns="http://www.w3.org/2000/svg"
 width="1600.000000pt" height="1600.000000pt" viewBox="0 0 1600.000000 1600.000000"
 preserveAspectRatio="xMidYMid meet">

<g transform="translate(0.000000,1600.000000) scale(0.100000,-0.100000)"
fill="#000000" stroke="none">
<path d="M5615 15424 c-421 -26 -813 -202 -1110 -499 -264 -264 -417 -564
-487 -955 -11 -61 -13 -478 -13 -2255 0 -1777 2 -2194 13 -2255 44 -244 119
-451 232 -635 47 -76 141 -205 164 -224 9 -7 16 -17 16 -22 0 -4 -530 -10
-1177 -12 -1269 -4 -1195 -1 -1412 -57 -410 -105 -791 -390 -1021 -765 -111
-180 -197 -420 -232 -645 -20 -127 -19 -4936 1 -5060 58 -370 224 -700 479
-957 264 -266 594 -433 972 -494 124 -20 4363 -21 4490 -1 509 80 946 369
1217 802 119 192 209 446 235 670 12 99 28 135 28 63 0 -138 88 -443 180 -624
135 -264 380 -524 644 -683 170 -102 403 -188 608 -223 96 -17 240 -18 2268
-18 2349 0 2222 -3 2440 56 304 81 556 226 775 444 259 260 426 591 486 965
21 125 21 4933 0 5060 -60 381 -221 701 -486 965 -217 218 -485 373 -766 445
-217 56 -143 53 -1411 57 -648 2 -1178 6 -1178 8 0 3 23 33 51 67 150 185 261
406 320 633 56 217 52 48 56 2380 4 2343 6 2258 -52 2486 -39 155 -117 339
-198 469 -236 377 -609 653 -1030 761 -223 57 -41 53 -2652 54 -1320 1 -2422
0 -2450 -1z m667 -1761 c4 -682 2 -652 70 -788 42 -83 163 -202 248 -243 129
-64 86 -62 1400 -62 1314 0 1271 -2 1399 62 85 41 207 161 249 243 68 136 65
107 70 788 l3 617 333 0 c364 0 381 -2 501 -62 83 -42 200 -163 241 -248 63
-131 59 20 59 -2270 l0 -2095 -23 -65 c-35 -96 -84 -170 -161 -243 -80 -75
-166 -121 -266 -142 -106 -22 -4704 -22 -4810 0 -100 21 -186 67 -266 142 -77
73 -126 147 -161 243 l-23 65 0 2095 c0 1631 3 2107 12 2147 33 140 161 306
283 368 122 62 134 64 502 64 l337 1 3 -617z m2288 332 l0 -285 -570 0 -570 0
0 285 0 285 570 0 570 0 0 -285z m-140 -6001 c0 -3 -18 -27 -41 -52 -98 -111
-221 -324 -279 -484 -51 -140 -100 -354 -100 -440 0 -21 -4 -38 -10 -38 -5 0
-10 17 -10 38 0 86 -49 300 -100 440 -58 160 -181 373 -279 484 -23 25 -41 49
-41 52 0 3 194 6 430 6 237 0 430 -3 430 -6z m-5860 -1161 c0 -659 2 -681 62
-803 41 -84 169 -215 249 -254 133 -64 47 -60 1354 -64 1259 -3 1296 -2 1407
43 171 70 316 244 347 419 7 38 11 277 11 659 l0 599 198 -4 c165 -4 208 -9
263 -26 169 -55 318 -206 372 -377 l22 -70 0 -2375 c0 -1993 -2 -2384 -14
-2430 -33 -131 -131 -268 -245 -344 -29 -19 -89 -48 -132 -63 l-79 -28 -2095
0 c-2004 0 -2098 1 -2154 18 -191 59 -331 193 -393 376 l-22 66 -1 2390 c0
1960 3 2399 14 2440 44 168 200 338 357 390 79 27 134 33 312 34 l167 1 0
-597z m2288 310 l2 -283 -570 0 -570 0 0 285 0 285 568 -2 567 -3 3 -282z
m5142 -311 c0 -381 4 -620 11 -658 31 -175 176 -349 347 -419 111 -45 148 -46
1407 -43 1307 4 1221 0 1354 64 80 39 208 170 249 254 60 122 62 144 62 804
l0 598 198 -4 c165 -4 208 -9 263 -26 172 -56 319 -211 373 -391 15 -50 16
-275 16 -2436 0 -2106 -2 -2388 -15 -2440 -49 -186 -203 -341 -401 -402 -56
-17 -150 -18 -2154 -18 l-2095 0 -79 28 c-43 15 -103 44 -132 63 -115 77 -216
219 -247 347 -9 40 -12 573 -12 2427 l0 2375 22 70 c63 201 245 360 451 395
26 4 122 8 215 9 l167 1 0 -598z m2280 313 l0 -285 -570 0 -570 0 0 278 c0
153 3 282 7 285 3 4 260 7 570 7 l563 0 0 -285z"/>
</g>
</svg>
